PathFileType	4	(X/Y/Z)	regression/subject18/trials/walk2/markers.trc
DataRate	CameraRate	NumFrames	NumMarkers	Units	OrigDataRate	OrigDataStartFrame	OrigNumFrames
200.00000000000426	200.00000000000426	4	64	m	200.00000000000426	26	215
Frame#	Time	CLAV			C7			RACR			RASH			RPSH			RLEL			RMEL			RUA1			RUA2			RUA3			RFAsuperior			RFAradius			RFAulna			RASI			RPSI			RCAL			RTOE			RMT5			RTH1			RTH2			RTH3			RTB1			RTB2			RTB3			RLFC			RMFC			RLMAL			RMMAL			RHJC			RKJC			REJC			RAJC			RSJC			LACR			LASH			LPSH			LLEL			LMEL			LUA1			LUA2			LUA3			LFAsuperior			LFAradius			LFAulna			LASI			LPSI			LCAL			LTOE			LMT5			LTH1			LTH2			LTH3			LTB1			LTB2			LTB3			LLFC			LMFC			LLMAL			LMMAL			LHJC			LKJC			LEJC			LAJC			LSJC			
		X1	Y1	Z1	X2	Y2	Z2	X3	Y3	Z3	X4	Y4	Z4	X5	Y5	Z5	X6	Y6	Z6	X7	Y7	Z7	X8	Y8	Z8	X9	Y9	Z9	X10	Y10	Z10	X11	Y11	Z11	X12	Y12	Z12	X13	Y13	Z13	X14	Y14	Z14	X15	Y15	Z15	X16	Y16	Z16	X17	Y17	Z17	X18	Y18	Z18	X19	Y19	Z19	X20	Y20	Z20	X21	Y21	Z21	X22	Y22	Z22	X23	Y23	Z23	X24	Y24	Z24	X25	Y25	Z25	X26	Y26	Z26	X27	Y27	Z27	X28	Y28	Z28	X29	Y29	Z29	X30	Y30	Z30	X31	Y31	Z31	X32	Y32	Z32	X33	Y33	Z33	X34	Y34	Z34	X35	Y35	Z35	X36	Y36	Z36	X37	Y37	Z37	X38	Y38	Z38	X39	Y39	Z39	X40	Y40	Z40	X41	Y41	Z41	X42	Y42	Z42	X43	Y43	Z43	X44	Y44	Z44	X45	Y45	Z45	X46	Y46	Z46	X47	Y47	Z47	X48	Y48	Z48	X49	Y49	Z49	X50	Y50	Z50	X51	Y51	Z51	X52	Y52	Z52	X53	Y53	Z53	X54	Y54	Z54	X55	Y55	Z55	X56	Y56	Z56	X57	Y57	Z57	X58	Y58	Z58	X59	Y59	Z59	X60	Y60	Z60	X61	Y61	Z61	X62	Y62	Z62	X63	Y63	Z63	X64	Y64	Z64	

27	2.57	0.9619951353329785	1.429290865786546	-0.4739304294119706	0.8509056982638131	1.50355412085713	-0.4870000584395499	0.9130764572598606	1.477373408059812	-0.3549101148466222	0.950113315998073	1.417849357571282	-0.3125905004984812	0.8534430160260255	1.43698457992038	-0.3244592318786634	0.7857472594563161	1.167159659670025	-0.2431576918844833	0.7823455568082299	1.150808062489962	-0.3238603838172557	0.8799532841732616	1.383748576287015	-0.29336166755271	0.8120542254255951	1.243765163517184	-0.2743141377639235	0.8680358040074929	1.298002465944124	-0.27808658547696	0.8011906177061391	1.07786494441023	-0.2675605407493283	0.8132456648823539	0.9269526227143227	-0.2336898867146284	0.7520352007692742	0.9228532477469481	-0.250764332765328	0.9642099329464073	1.017057483778889	-0.3619908413562554	0.8036171946672941	1.04954717936792	-0.4374123845542141	0.9491903985328555	0.03737312993522188	-0.3939050839748084	1.194853072973126	0.0530388681507161	-0.4654111159562769	1.147885147315285	0.01784703841639906	-0.3645125410880109	0.9711926459441762	0.7840234079080476	-0.3403844814058694	1.060426808505005	0.728164924978817	-0.4159687533232717	1.02007696344592	0.6308043176923097	-0.346911586309595	1.047321548251911	0.3426889855602806	-0.3699519880830343	1.076087623880433	0.2576296297625486	-0.4268285192913935	1.057281898048183	0.1850726898437353	-0.3655508070445411	1.04837069854593	0.5225642207151993	-0.3589470369272946	1.03613170853325	0.5201209786750547	-0.4705756225700986	1.035523008820821	0.07974565670859102	-0.3629129569002499	1.029966368700577	0.07900770644259675	-0.4494311938180265	0.8864585836626964	0.9248874484305276	-0.406512666792823	1.045674597363835	0.5196751379345175	-0.4176999607455478	0.7869637773212461	1.153073223754306	-0.288403166521667	1.019517425179385	0.06707746266186482	-0.4106056214150929	0.9048281139761674	1.426813252480717	-0.3181504077135276	0.9437293447143259	1.480046077316759	-0.6002675680953965	0.9901978611308353	1.421344386599597	-0.6334425547468785	0.8857939371610239	1.442010426736623	-0.6462607846374753	0.9439998516074911	1.159573255508352	-0.7570103349152618	0.9220004527553126	1.132308505898654	-0.6824145600494251	0.9438632784239814	1.385548530489429	-0.671915508326455	0.9336345137672281	1.235642833992524	-0.7165484664620875	0.9653288801868368	1.302941449360703	-0.6929642135884941	0.9987834262895097	1.092359381035738	-0.7190154161734774	1.110591543533067	0.9851289672532069	-0.7272408332015835	1.063357999257026	0.9428458190558293	-0.7332566601307674	0.9407079612754409	1.008496337214457	-0.6317390540494046	0.7953846258138138	1.046548272316922	-0.5319032113320796	0.3980663282753146	0.2356327083334073	-0.6109321576753703	0.5541120109808543	0.04469251094990824	-0.5409302754947464	0.4922119502022192	0.05932457628063918	-0.6388039617993667	0.8693078073058883	0.7613941248913203	-0.648199738338731	0.9256706503371511	0.6629744693462016	-0.5854885800637897	0.8360351260732074	0.603944351586427	-0.6514962171267809	0.6799249797509886	0.3673845056120805	-0.6357207803887991	0.641064369899036	0.2841256738476789	-0.5822853908679221	0.5718712261164967	0.2522942707479387	-0.6420532208675025	0.8078413682399336	0.4951657703050271	-0.6456963563750517	0.8065369009380643	0.4898872302093831	-0.5335039376457675	0.4802460999747137	0.195926882223902	-0.6433742785221028	0.4809497540092483	0.1932771123446761	-0.5567180050621373	0.8723241776711433	0.9197386582358584	-0.568742917389665	0.8102754898101376	0.4866665024130636	-0.5868615004172895	0.9360538510356262	1.140552044591284	-0.7143240938318898	0.4628653994304933	0.1954155835920328	-0.5944978842306348	0.9449126591089296	1.430308281509032	-0.6390024619619248	
28	2.575	0.9683372823827864	1.429967560304364	-0.4734319093303719	0.8571057597879121	1.504023777242717	-0.4864677982124856	0.9194192378221295	1.478038282137192	-0.3544065597868867	0.9565932273335195	1.418607470162299	-0.3120761411480073	0.8598802635710677	1.437562294088942	-0.3238866324926832	0.7932546259355808	1.167657335092687	-0.2415766790807432	0.789684793806713	1.151072691985966	-0.3222245352706967	0.8866208182699268	1.384410450714868	-0.2926336478925503	0.8192279003359585	1.244261361989475	-0.2730154430218275	0.87502298945612	1.298668665189639	-0.2770905952126929	0.8091985790772058	1.078387792755312	-0.2658692488002977	0.822458187327919	0.9276433014744103	-0.2317026665259768	0.7611837646520673	0.9230899698566277	-0.2484291364739237	0.9708267875706519	1.017784738716852	-0.3607906064867219	0.8104385853630537	1.049969501454295	-0.4367760177573225	0.9494281939892053	0.03746914087760057	-0.3935983967706878	1.195070791793896	0.05292414722016475	-0.4652191654026397	1.148105416691217	0.01745456817869562	-0.3644167059327325	0.9773535878079239	0.784091248390844	-0.3395110121775506	1.066318912601156	0.7278439811344463	-0.4151238679296878	1.025439230897452	0.6306256438124631	-0.3461779712019098	1.050394102381748	0.3423829563837627	-0.3694590531211521	1.078271734167472	0.2570769916823844	-0.4264086005335175	1.058761430697375	0.1846709053337689	-0.3651727483646318	1.053171199836931	0.5222514924415202	-0.3583141701316659	1.040955162726901	0.5199850607885352	-0.4699489996684135	1.035939321635428	0.07956755279472816	-0.3625982492166824	1.030335268693046	0.07894673910612782	-0.4491143478363296	0.8933773087185656	0.9254626488019947	-0.4055230400339054	1.050515548877996	0.5194102711343249	-0.4170825195615357	0.7943927853438043	1.153450380254991	-0.2867864965440834	1.019784220712997	0.06709549143380455	-0.4102921953338713	0.9112880394589989	1.427486857430735	-0.3176087658184207	0.94988893064841	1.480609656733986	-0.5997879127596273	0.9964382102601939	1.421970036942722	-0.6329594488815911	0.8919882093967459	1.442441246783496	-0.6457147795338412	0.9490208358512882	1.15988964518731	-0.7559675280924574	0.9271708728676216	1.132837709202665	-0.6812504508874009	0.9498435128803622	1.386029229061041	-0.6713142063908937	0.9390154014684944	1.236069235349585	-0.7156222046516438	0.9709896524683228	1.303315773208531	-0.6922683206961756	1.003509589870506	1.092336854715823	-0.7181330054117999	1.114543201386453	0.9843366563122419	-0.7267683088413933	1.066997442127996	0.9423832342541482	-0.7326312137657741	0.9482555232995317	1.009030940533972	-0.6306121089668721	0.80253203650734	1.04690310994983	-0.531292517411753	0.4084407776663196	0.2441572520876306	-0.6112989841968887	0.5563568114187939	0.04695318237148376	-0.5410132856299439	0.4955966287897431	0.06428936655984843	-0.6391592496619315	0.8792406467429633	0.7620284186840329	-0.6476569030385693	0.937031219802713	0.6643113079656555	-0.5851468719823507	0.8483503677148491	0.60410343828127	-0.6513798627383398	0.6918002893335509	0.3691537921334739	-0.6359268620286264	0.6513391141293383	0.2866790338452261	-0.5824635244553366	0.5816106742877925	0.2561072104770749	-0.6422667949836157	0.8217965860472172	0.4948974654435979	-0.6458791094426346	0.8204806986512647	0.4893147353252644	-0.5337015492730668	0.4889448176452446	0.2014685126186249	-0.6436244149156531	0.4895261737704008	0.1988708700700629	-0.5569656564568157	0.8798026428387334	0.9201979952989953	-0.5677973681072677	0.8243258547026687	0.4860047365330808	-0.5870442394582279	0.9411498082824856	1.140975958203595	-0.7132196633813328	0.471516731269519	0.2013201133805052	-0.5947624472968575	0.9511330223856733	1.430849424211158	-0.6384920735520045	
29	2.58	0.9746497017216924	1.430619269232841	-0.4729582247356552	0.8632876963781901	1.504489140543622	-0.4859372525630307	0.9257611821110395	1.478680539686524	-0.3539169287591196	0.9630685364698414	1.41933413028394	-0.311585424508757	0.8663146960198768	1.438126720965582	-0.3233201298422985	0.8007172904465739	1.168160364984545	-0.2400064338720339	0.7969749554872916	1.15134178838312	-0.3205980041917363	0.8932781344445584	1.38505530719841	-0.2919202785342441	0.8263689185821315	1.244756011928396	-0.271728423741405	0.8819857803247805	1.299321864988731	-0.2761085888658109	0.8171851915795398	1.078923374286733	-0.2641932476837343	0.8317016889055395	0.9283593413461286	-0.2297430300232726	0.7703696458126033	0.9233321853083531	-0.2461189480805319	0.9773846274766124	1.018517522679466	-0.3596426322192074	0.8171834419484594	1.050376541343597	-0.4361579912717933	0.9496520504905392	0.0375474495425155	-0.3933065180849249	1.195280607294654	0.05281251753307662	-0.4650161224506488	1.148309583947755	0.01706936025874575	-0.3643129794763393	0.983410244468562	0.7841351089831667	-0.338669751688342	1.072085026994736	0.7274644513870602	-0.4143077550724341	1.030642537249586	0.6304104059103277	-0.3454664704841293	1.053329573624223	0.3420513162914265	-0.3689760162861934	1.080358630611012	0.2565182050763262	-0.4259938896449623	1.060167661178718	0.184262580122004	-0.3648009792017373	1.057774353902343	0.5218949549966179	-0.35769625172544	1.045581482561229	0.5198017672927593	-0.4693369965030769	1.036327668820491	0.0793838657359866	-0.3622907091087066	1.030688205161746	0.07887718160365698	-0.4488052504310371	0.9002436915777372	0.9260341728125085	-0.4045746550736436	1.055152428484018	0.5191019525124396	-0.4164778992671765	0.801773743760512	1.153831894086641	-0.2851798707104105	1.020035964413536	0.06710207145890718	-0.4099875642826671	0.9177441999110555	1.428137519388755	-0.3170825472222545	0.9560067652672997	1.481158207970562	-0.5993269701070434	1.002620452904951	1.42257415803999	-0.6325062478098882	0.898126305218989	1.442870155976164	-0.6451797295701129	0.954037332835532	1.160204693966452	-0.7549598138227466	0.9323334061955071	1.133357484987777	-0.6801264209594594	0.9557766306440785	1.38649968306074	-0.6707367420363508	0.9443763898749299	1.236489024189992	-0.7147285953291147	0.9766174558669024	1.303685329599025	-0.6915980164367191	1.008229408785267	1.092315757466448	-0.7172855476729029	1.118487742679792	0.9835571393489184	-0.7263263993350408	1.070635011301207	0.9419334797328199	-0.7320403786640266	0.9556933435994737	1.009584197547239	-0.6295304201235741	0.8095851437912228	1.047247262861297	-0.5306977102257142	0.4192099168431423	0.2527194190779947	-0.6115679053829643	0.5589535396117619	0.04970443048254857	-0.541102936229419	0.4994478422772227	0.0696742388568342	-0.6395166144927642	0.8892121485850217	0.7626890895407303	-0.6471142948766352	0.9484656350075288	0.6657481445078766	-0.5847655533714026	0.8608151543634068	0.6043066896336748	-0.6512368331036321	0.7039335793645666	0.3710250774774996	-0.6360790592678446	0.6618879396634214	0.2893700646514177	-0.5825800501127179	0.5916472046212287	0.2600607107679997	-0.642415857020765	0.8359773858094354	0.4946838927168705	-0.6460182355438189	0.8346279302739373	0.48881996374675	-0.5338554219753233	0.4979734744449192	0.2071693682489179	-0.6438049517724852	0.498434822796424	0.2046357330333952	-0.5571435763525513	0.8871982578971127	0.9206615493560085	-0.5668888481043087	0.8385884222661792	0.4854105532289572	-0.587184113791864	0.9462397607557859	1.141394584202163	-0.7121528259821621	0.4805055558622993	0.2073900171301942	-0.5949574827377847	0.9572961163461648	1.431377547144805	-0.6380033705233856	
30	2.585	0.9809333309373884	1.431234736703797	-0.4725080504705969	0.8694574659400318	1.504947072374118	-0.4854050415172836	0.9321080679335995	1.479291262293973	-0.3534388804225615	0.9695413524789191	1.42001728445048	-0.3111170656092875	0.8727495617255688	1.438672815544476	-0.322757117927495	0.8081379212138891	1.16865919489057	-0.2384460690993445	0.8042165877256726	1.151607049465876	-0.3189800263877473	0.8999281810548685	1.385674088643865	-0.2912197098185371	0.8334797046535906	1.245239992174264	-0.270451682630622	0.8889269314132493	1.299952706575726	-0.2751396890626895	0.8251515186249058	1.07946292433512	-0.2625329624577224	0.8409754213997443	0.9290923768402582	-0.2278144262864462	0.7795926223706662	0.9235723656449932	-0.243837658162692	0.9838575825199026	1.019242509172402	-0.3585505595550171	0.8238279362448362	1.050754177199388	-0.4355670784132943	0.9498604951818956	0.03760649692607319	-0.3930362451861414	1.195483189257357	0.05270594307194156	-0.4648009750882148	1.148495878510601	0.01669458149441165	-0.3642010357382489	0.9893553961704079	0.7841512105669159	-0.3378762282668411	1.077725562235202	0.7270304545383119	-0.4135321667302075	1.035693782662919	0.63015989336764	-0.3447897922592121	1.056139591426199	0.3416960214918228	-0.3685115272679658	1.082356942969787	0.2559517899888668	-0.4255912798961428	1.061504620248812	0.1838475894391495	-0.3644415638469694	1.062197345786415	0.5214988533013191	-0.357104240056782	1.050032386452619	0.5195734501706395	-0.4687510493618465	1.036686702135773	0.07919446092120608	-0.3619951266854211	1.031024974798806	0.07879745193348148	-0.4485087866866429	0.9070404529664308	0.9265894228986188	-0.4036871841836689	1.05960611442219	0.5187531631330893	-0.4158975092139716	0.8091081027708474	1.154208882728577	-0.2835826151993164	1.020271205472131	0.06709677107101913	-0.4096965885729617	0.9241992381005122	1.428756467991463	-0.3165698481177518	0.9620858104385653	1.481683112622719	-0.5988826347559901	1.008743015754644	1.423145088726533	-0.6320819751222326	0.9042078817410253	1.443293062308049	-0.6446532316258967	0.9590504699178319	1.160508675593008	-0.7539843384619533	0.9374893958712589	1.133858418182105	-0.6790393345266533	0.9616619407606596	1.386951181963382	-0.6701813278004809	0.9497179768886521	1.236892808469899	-0.7138651084527645	0.9822123195339059	1.304041313685402	-0.6909511515662617	1.012942143912398	1.092284067763395	-0.7164716380578311	1.12242008586654	0.9827740673176499	-0.725916966779831	1.074263815167265	0.9414821732121841	-0.731486129510544	0.9630112053044376	1.010175487015001	-0.6285004656862413	0.8165256027140733	1.047578065626628	-0.5301285569279373	0.4303826471767984	0.2612746389531617	-0.6117317859162181	0.5619863197782294	0.05292656949283389	-0.541161020817012	0.5038481674116547	0.07543252597861104	-0.6398444059087182	0.8992213656819615	0.7633783837101751	-0.6465721165367597	0.9599642613987962	0.6672968436031836	-0.5843264233927865	0.873428843045061	0.6045606456665606	-0.6510488409317617	0.7163377367375493	0.3729947699601226	-0.6361499036362522	0.6727286470492436	0.2921944731575909	-0.5826047801303106	0.6020086409456284	0.2641355932767069	-0.6424754980916215	0.8503826956545901	0.4945355448041889	-0.6460831202613593	0.8489663704547369	0.4884266722466185	-0.5339342052429177	0.50736674275558	0.2129977160478164	-0.6438967800311162	0.5077015029595862	0.2105481201441373	-0.5572324069883484	0.8945031576645031	0.9211363922294751	-0.5660387359623648	0.8530562290520733	0.4849028710884031	-0.5872488787599738	0.9513249983077143	1.141798412323312	-0.711120557662223	0.4898612864107465	0.2135958299899712	-0.595065915257848	0.9634009013762367	1.431884272267515	-0.6375347576306969	
